<?xml version="1.0" encoding="UTF-8" standalone="no"?>
<svg
   xmlns:dc="http://purl.org/dc/elements/1.1/"
   xmlns:cc="http://creativecommons.org/ns#"
   xmlns:rdf="http://www.w3.org/1999/02/22-rdf-syntax-ns#"
   xmlns:svg="http://www.w3.org/2000/svg"
   xmlns="http://www.w3.org/2000/svg"
   viewBox="0 0 246.98625 324.11987"
   height="324.11987"
   width="246.98625"
   xml:space="preserve"
   id="svg2"
   version="1.1"><metadata
     id="metadata8"><rdf:RDF><cc:Work
         rdf:about=""><dc:format>image/svg+xml</dc:format><dc:type
           rdf:resource="http://purl.org/dc/dcmitype/StillImage" /></cc:Work></rdf:RDF></metadata><defs
     id="defs6" /><g
     transform="matrix(1.3333333,0,0,-1.3333333,-263.17373,419.39332)"
     id="g10"><g
       transform="scale(0.1)"
       id="g12"><path
         id="path14"
         style="fill:#99daa3;fill-opacity:1;fill-rule:nonzero;stroke:none"
         d="m 3218.89,1043.91 c -86.52,0 -164.67,-38.3 -190.04,-93.172 -6.1,-13.179 -19.62,-21.226 -34.17,-20.347 l -557.14,35.41 c -14.34,0.898 -28.01,-4.02 -38.49,-13.832 -10.49,-9.84 -16.26,-23.18 -16.26,-37.559 0,-14.371 5.77,-27.711 16.26,-37.539 10.48,-9.84 24.19,-14.781 38.49,-13.84 l 557.14,35.41 c 0.75,0.039 1.49,0.059 2.24,0.059 13.64,0 26.15,-7.91 31.93,-20.41 25.37,-54.852 103.52,-93.149 190.04,-93.149 107.5,0 198.32,59.301 198.32,129.469 0,70.199 -90.82,129.5 -198.32,129.5" /><path
         id="path16"
         style="fill:#99daa3;fill-opacity:1;fill-rule:nonzero;stroke:none"
         d="m 3085.02,2939.94 c 0,-13.83 2.07,-27.4 6.16,-40.39 4.8,-15.31 12.27,-29.51 21.9,-41.99 v 164.86 c -10.39,-13.49 -18.21,-28.9 -22.87,-45.29 -3.45,-12.11 -5.19,-24.63 -5.19,-37.19" /><path
         id="path18"
         style="fill:#99daa3;fill-opacity:1;fill-rule:nonzero;stroke:none"
         d="m 3014.98,2928.61 c -0.05,0.9 -0.12,1.82 -0.16,2.72 -0.11,2.85 -0.19,5.72 -0.19,8.61 0,4.75 0.17,9.45 0.5,14.18 l -552.37,35.12 c -1.11,0.08 -2.21,0.12 -3.33,0.12 -13.1,0 -25.49,-4.91 -35.16,-13.99 -10.47,-9.82 -16.24,-23.16 -16.24,-37.52 0,-14.37 5.77,-27.69 16.24,-37.54 10.49,-9.82 24.14,-14.72 38.52,-13.85 l 552.66,35.08 c -0.03,0.39 -0.04,0.78 -0.08,1.16 -0.16,1.97 -0.28,3.94 -0.39,5.91" /><path
         id="path20"
         style="fill:#f58b99;fill-opacity:1;fill-rule:nonzero;stroke:none"
         d="m 3455.47,2511.19 c 6.61,-4.18 13.16,-8.46 19.63,-12.83 1.25,-0.84 2.48,-1.7 3.72,-2.54 6.69,-4.61 13.33,-9.28 19.82,-14.06 6.81,-5.02 13.49,-10.16 20.1,-15.39 2.09,-1.66 4.15,-3.36 6.23,-5.04 4.54,-3.67 9.04,-7.38 13.49,-11.15 2.29,-1.96 4.56,-3.91 6.82,-5.88 4.36,-3.79 8.66,-7.64 12.91,-11.53 2.02,-1.85 4.06,-3.67 6.05,-5.52 5.72,-5.36 11.37,-10.79 16.91,-16.29 0.39,-0.41 0.8,-0.78 1.18,-1.17 5.9,-5.9 11.66,-11.94 17.34,-18.01 1.8,-1.96 3.55,-3.91 5.32,-5.86 3.93,-4.3 7.8,-8.63 11.62,-13.03 1.95,-2.27 3.89,-4.53 5.81,-6.8 1.48,-1.75 2.99,-3.43 4.46,-5.21 11.96,19.12 18.48,41.39 18.48,64.47 0,67.07 -54.58,121.64 -121.65,121.64 -29.6,0 -57.36,-10.49 -79.03,-29.1 2.31,-1.41 4.6,-2.85 6.89,-4.28 1.3,-0.82 2.61,-1.62 3.9,-2.42" /><path
         id="path22"
         style="fill:#d5cddf;fill-opacity:1;fill-rule:nonzero;stroke:none"
         d="m 2775.73,1456.07 h -616.24 v -208.08 h 1596.33 v 208.08 h -131.89 -848.2" /><path
         id="path24"
         style="fill:#f58b99;fill-opacity:1;fill-rule:nonzero;stroke:none"
         d="m 2705.87,1858.46 c 12.47,13.55 33.11,15.09 47.41,4 1.88,0.16 5.31,0.86 9.29,2.81 3.62,1.76 7.6,4.09 11.81,6.59 10.78,6.3 24.18,14.16 40.7,17.55 36.36,7.45 69.12,-10.05 88.69,-20.5 31.2,-16.66 60.55,-19.67 87.22,-8.85 18.01,7.28 38.53,-1.41 45.82,-19.42 7.29,-18.02 -1.4,-38.53 -19.42,-45.82 -19,-7.71 -38.77,-11.54 -58.91,-11.54 -28.89,0 -58.56,7.89 -87.88,23.56 -14.47,7.71 -30.81,15.82 -41.37,13.63 -5.11,-1.06 -11.99,-5.08 -19.27,-9.36 -4.92,-2.89 -10.5,-6.13 -16.53,-9.08 -31.53,-15.39 -64.3,-12.81 -85.51,6.7 -14.3,13.18 -15.22,35.43 -2.05,49.73 z m 381.75,-189.48 c 2.82,0.18 5.19,0.53 7.03,0.94 5.61,13.97 19.77,23.3 35.63,21.94 19.36,-1.65 33.73,-18.68 32.09,-38.05 -2.1,-24.77 -21.77,-52.27 -70.7,-55.08 -4.08,-0.23 -8.11,-0.35 -12.09,-0.35 -30.89,0 -59.44,7.11 -91.04,22.5 -3.23,1.58 -6.46,3.2 -9.72,4.8 -18.45,9.2 -35.87,17.89 -52.26,18.64 -13.71,0.7 -28.89,-4.11 -47.49,-11.41 -2.62,-1.02 -5.25,-2.09 -7.89,-3.12 -18,-7.19 -38.41,-15.34 -60.93,-18.4 -38.39,-5.26 -68.28,10 -92.28,22.26 -17.32,8.83 -24.18,30.04 -15.35,47.33 8.84,17.32 30.02,24.18 47.34,15.35 21.3,-10.86 35.35,-17.35 50.76,-15.2 13.99,1.9 28.75,7.8 44.39,14.05 2.75,1.09 5.52,2.18 8.27,3.26 23.31,9.14 48.74,17.42 76.36,16.19 31.28,-1.43 57.42,-14.45 80.49,-25.96 3.06,-1.52 6.11,-3.05 9.14,-4.53 24.57,-11.95 44.97,-16.44 68.25,-15.16 z m -311.89,-142.52 h 740.99 l -15.74,11.59 -633.14,466.11 h -92.11 c -63.78,0 -123.77,-24.84 -168.92,-69.96 -45.08,-45.14 -69.93,-105.12 -69.93,-168.89 0,-131.7 107.14,-238.85 238.85,-238.85" /><path
         id="path26"
         style="fill:#ffffff;fill-opacity:1;fill-rule:nonzero;stroke:none"
         d="m 2762.38,2291.52 c -10.91,0 -21.67,5.08 -28.54,14.59 -11.39,15.75 -7.85,37.74 7.89,49.14 95.3,68.89 208.93,105.32 328.63,105.32 19.43,0 35.19,-15.75 35.19,-35.2 0,-19.43 -15.76,-35.17 -35.19,-35.17 -104.79,0 -204.17,-31.82 -287.39,-92 -6.23,-4.49 -13.44,-6.68 -20.59,-6.68 z m 845.92,-745.06 7.4,-5.44 c 149.76,227.59 143.52,522.3 -18.9,744.04 0,0 0,0 -0.01,0 -19.51,26.66 -41.04,51.76 -64.41,75.17 -11.7,11.68 -23.84,22.95 -36.42,33.79 -12.58,10.8 -25.61,21.18 -39.07,31.08 -26.1,19.26 -53.93,36.7 -82.73,51.89 -272.78,144.16 -613.97,73.38 -808.64,-162.91 l 334.73,-246.4 708.05,-521.22" /><path
         id="path28"
         style="fill:#534b7f;fill-opacity:1;fill-rule:nonzero;stroke:none"
         d="m 3105.55,2425.37 c 0,19.45 -15.76,35.2 -35.19,35.2 -119.7,0 -233.33,-36.43 -328.63,-105.32 -15.74,-11.4 -19.28,-33.39 -7.89,-49.14 6.87,-9.51 17.63,-14.59 28.54,-14.59 7.15,0 14.36,2.19 20.59,6.68 83.22,60.18 182.6,92 287.39,92 19.43,0 35.19,15.74 35.19,35.17" /><path
         id="path30"
         style="fill:#534b7f;fill-opacity:1;fill-rule:nonzero;stroke:none"
         d="M 3755.82,1247.99 H 2159.49 v 208.08 h 1596.33 z m -1218.94,517.32 c 0,63.77 24.85,123.75 69.93,168.89 45.15,45.12 105.14,69.96 168.92,69.96 h 92.11 l 633.14,-466.11 15.74,-11.59 h -740.99 c -131.71,0 -238.85,107.15 -238.85,238.85 z m 28.64,548.77 c 194.67,236.29 535.86,307.07 808.64,162.91 28.8,-15.19 56.63,-32.63 82.73,-51.89 13.46,-9.9 26.49,-20.28 39.07,-31.08 12.58,-10.84 24.72,-22.11 36.42,-33.79 23.37,-23.41 44.9,-48.51 64.41,-75.17 0.01,0 0.01,0 0.01,0 162.42,-221.74 168.66,-516.45 18.9,-744.04 l -7.4,5.44 -708.05,521.22 z m 958.19,232.91 c 67.07,0 121.65,-54.57 121.65,-121.64 0,-23.08 -6.52,-45.35 -18.48,-64.47 -1.47,1.78 -2.98,3.46 -4.46,5.21 -1.92,2.27 -3.86,4.53 -5.81,6.8 -3.82,4.4 -7.69,8.73 -11.62,13.03 -1.77,1.95 -3.52,3.9 -5.32,5.86 -5.68,6.07 -11.44,12.11 -17.34,18.01 -0.38,0.39 -0.79,0.76 -1.18,1.17 -5.54,5.5 -11.19,10.93 -16.91,16.29 -1.99,1.85 -4.03,3.67 -6.05,5.52 -4.25,3.89 -8.55,7.74 -12.91,11.53 -2.26,1.97 -4.53,3.92 -6.82,5.88 -4.45,3.77 -8.95,7.48 -13.49,11.15 -2.08,1.68 -4.14,3.38 -6.23,5.04 -6.61,5.23 -13.29,10.37 -20.1,15.39 -6.49,4.78 -13.13,9.45 -19.82,14.06 -1.24,0.84 -2.47,1.7 -3.72,2.54 -6.47,4.37 -13.02,8.65 -19.63,12.83 -1.29,0.8 -2.6,1.6 -3.9,2.42 -2.29,1.43 -4.58,2.87 -6.89,4.28 21.67,18.61 49.43,29.1 79.03,29.1 z m 267.3,-1020.53 h -101.32 c 68.68,113.74 104.28,242.74 103.44,376.86 -0.88,141.37 -44.17,281.74 -122.33,398.65 28.84,34.3 44.94,77.82 44.94,123.38 0,105.9 -86.14,192.03 -192.03,192.03 -55.86,0 -107.54,-23.75 -143.61,-64.67 -145.35,69.16 -310.75,87.8 -469.11,52.23 -169.94,-38.14 -320.43,-136.5 -423.78,-276.91 -11.53,-15.67 -8.17,-37.68 7.48,-49.2 l 277.64,-204.38 c -81.29,-0.86 -157.62,-32.89 -215.29,-90.49 -58.38,-58.43 -90.54,-136.09 -90.54,-218.65 0,-96.11 44.08,-182.09 113.05,-238.85 h -455.24 c -19.44,0 -35.2,-15.76 -35.2,-35.19 v -278.48 c 0,-19.43 15.76,-35.17 35.2,-35.17 h 1666.7 c 19.43,0 35.19,15.74 35.19,35.17 v 278.48 c 0,19.43 -15.76,35.19 -35.19,35.19" /><path
         id="path32"
         style="fill:#534b7f;fill-opacity:1;fill-rule:nonzero;stroke:none"
         d="m 2793.43,1802.03 c 6.03,2.95 11.61,6.19 16.53,9.08 7.28,4.28 14.16,8.3 19.27,9.36 10.56,2.19 26.9,-5.92 41.37,-13.63 29.32,-15.67 58.99,-23.56 87.88,-23.56 20.14,0 39.91,3.83 58.91,11.54 18.02,7.29 26.71,27.8 19.42,45.82 -7.29,18.01 -27.81,26.7 -45.82,19.42 -26.67,-10.82 -56.02,-7.81 -87.22,8.85 -19.57,10.45 -52.33,27.95 -88.69,20.5 -16.52,-3.39 -29.92,-11.25 -40.7,-17.55 -4.21,-2.5 -8.19,-4.83 -11.81,-6.59 -3.98,-1.95 -7.41,-2.65 -9.29,-2.81 -14.3,11.09 -34.94,9.55 -47.41,-4 -13.17,-14.3 -12.25,-36.55 2.05,-49.73 21.21,-19.51 53.98,-22.09 85.51,-6.7" /><path
         id="path34"
         style="fill:#534b7f;fill-opacity:1;fill-rule:nonzero;stroke:none"
         d="m 3010.23,1688.67 c -23.07,11.51 -49.21,24.53 -80.49,25.96 -27.62,1.23 -53.05,-7.05 -76.36,-16.19 -2.75,-1.08 -5.52,-2.17 -8.27,-3.26 -15.64,-6.25 -30.4,-12.15 -44.39,-14.05 -15.41,-2.15 -29.46,4.34 -50.76,15.2 -17.32,8.83 -38.5,1.97 -47.34,-15.35 -8.83,-17.29 -1.97,-38.5 15.35,-47.33 24,-12.26 53.89,-27.52 92.28,-22.26 22.52,3.06 42.93,11.21 60.93,18.4 2.64,1.03 5.27,2.1 7.89,3.12 18.6,7.3 33.78,12.11 47.49,11.41 16.39,-0.75 33.81,-9.44 52.26,-18.64 3.26,-1.6 6.49,-3.22 9.72,-4.8 31.6,-15.39 60.15,-22.5 91.04,-22.5 3.98,0 8.01,0.12 12.09,0.35 48.93,2.81 68.6,30.31 70.7,55.08 1.64,19.37 -12.73,36.4 -32.09,38.05 -15.86,1.36 -30.02,-7.97 -35.63,-21.94 -1.84,-0.41 -4.21,-0.76 -7.03,-0.94 -23.28,-1.28 -43.68,3.21 -68.25,15.16 -3.03,1.48 -6.08,3.01 -9.14,4.53" /><path
         id="path36"
         style="fill:#534b7f;fill-opacity:1;fill-rule:nonzero;stroke:none"
         d="m 2220.19,2208.03 c 18.89,4.51 30.56,23.49 26.06,42.4 -4.5,18.91 -23.51,30.59 -42.38,26.07 -36.65,-8.73 -64.13,-43.73 -63.94,-81.38 0.19,-37.68 28.03,-72.39 64.75,-80.75 21.94,-4.98 42.25,-0.39 58.56,3.33 l 5.45,1.21 c 16.5,3.59 21.6,2.07 23.04,1.25 1.46,-0.86 4.5,-5.73 4.85,-13.01 0,-2.23 -1.58,-8.52 -2.62,-12.7 -3.38,-13.47 -8.01,-31.95 -1.45,-50.62 5.1,-14.47 18.69,-23.52 33.2,-23.52 3.88,0 7.82,0.63 11.68,2.01 17.62,6.2 27.21,24.98 22.2,42.72 0.24,2.75 1.66,8.44 2.64,12.3 2.45,9.81 5.24,20.94 4.65,33.11 -1.49,30.66 -16.44,57.09 -40,70.68 -25.11,14.48 -52.31,11.1 -73.21,6.55 l -5.97,-1.35 c -10.82,-2.44 -21.04,-4.75 -27.4,-3.32 -5.02,1.15 -9.97,7.3 -9.99,12.46 -0.03,5.15 4.87,11.39 9.88,12.56" /><path
         id="path38"
         style="fill:#534b7f;fill-opacity:1;fill-rule:nonzero;stroke:none"
         d="m 2104.41,1967.89 c 5.46,-8.57 8.9,-20.53 12.54,-33.18 1.18,-4.05 2.34,-8.09 3.57,-12.07 6.12,-19.83 17.18,-48.28 42.43,-66.49 16.2,-11.66 36.17,-17.69 57.8,-17.69 7.79,0 15.8,0.78 23.93,2.36 23.45,4.57 43.8,14.77 61.74,23.79 17.37,8.69 24.39,29.84 15.68,47.23 -8.72,17.36 -29.87,24.37 -47.24,15.66 -15.25,-7.64 -29.66,-14.88 -43.65,-17.6 -10.91,-2.15 -21.3,-0.84 -27.12,3.36 -6.07,4.38 -11.4,14.22 -16.32,30.14 -1.1,3.57 -2.14,7.19 -3.18,10.78 -4.64,16.09 -9.89,34.34 -20.78,51.46 -24.87,39.15 -72.63,53.05 -118.79,34.59 -23.47,-9.37 -41.98,-24.51 -58.31,-37.89 -15.04,-12.3 -17.26,-34.47 -4.95,-49.51 12.3,-15.04 34.48,-17.26 49.52,-4.96 13.6,11.13 26.44,21.64 39.85,27.01 6.93,2.78 24.01,7.62 33.28,-6.99" /><path
         id="path40"
         style="fill:#534b7f;fill-opacity:1;fill-rule:nonzero;stroke:none"
         d="m 3218.89,784.941 c -86.52,0 -164.67,38.297 -190.04,93.149 -5.78,12.5 -18.29,20.41 -31.93,20.41 -0.75,0 -1.49,-0.02 -2.24,-0.059 l -557.14,-35.41 c -14.3,-0.941 -28.01,4 -38.49,13.84 -10.49,9.828 -16.26,23.168 -16.26,37.539 0,14.379 5.77,27.719 16.26,37.559 10.48,9.812 24.15,14.73 38.49,13.832 l 557.14,-35.41 c 14.55,-0.879 28.07,7.168 34.17,20.347 25.37,54.872 103.52,93.172 190.04,93.172 107.5,0 198.32,-59.301 198.32,-129.5 0,-70.168 -90.82,-129.469 -198.32,-129.469 z m 185.4,274.669 c -49.99,35.27 -115.83,54.67 -185.4,54.67 -104.08,0 -197.67,-44.26 -241.87,-112.23 l -535.01,33.99 c -33.48,2.14 -66.68,-9.81 -91.13,-32.76 -24.44,-22.952 -38.47,-55.331 -38.47,-88.87 0,-33.531 14.03,-65.89 38.47,-88.84 24.45,-22.949 57.65,-34.929 91.13,-32.781 l 535.01,33.992 c 44.2,-67.972 137.79,-112.23 241.87,-112.23 69.57,0 135.41,19.41 185.4,54.668 53.71,37.871 83.29,89.453 83.29,145.191 0,55.77 -29.58,107.31 -83.29,145.2" /><path
         id="path42"
         style="fill:#534b7f;fill-opacity:1;fill-rule:nonzero;stroke:none"
         d="m 3113.08,2857.56 c -9.63,12.48 -17.1,26.68 -21.9,41.99 -4.09,12.99 -6.16,26.56 -6.16,40.39 0,12.56 1.74,25.08 5.19,37.19 4.66,16.39 12.48,31.8 22.87,45.29 z m -650.29,28.9 c -14.38,-0.87 -28.03,4.03 -38.52,13.85 -10.47,9.85 -16.24,23.17 -16.24,37.54 0,14.36 5.77,27.7 16.24,37.52 9.67,9.08 22.06,13.99 35.16,13.99 1.12,0 2.22,-0.04 3.33,-0.12 l 552.37,-35.12 c -0.33,-4.73 -0.5,-9.43 -0.5,-14.18 0,-2.89 0.08,-5.76 0.19,-8.61 0.04,-0.9 0.11,-1.82 0.16,-2.72 0.11,-1.97 0.23,-3.94 0.39,-5.91 0.04,-0.38 0.05,-0.77 0.08,-1.16 z m 757.36,188.62 h 199.6 c 19.42,0 35.18,15.74 35.18,35.17 0,19.44 -15.76,35.2 -35.18,35.2 h -199.6 c -30.27,0 -59.47,-6.47 -86.76,-19.2 0,0 0,0 -0.01,0 v 0 c -21.76,-10.16 -41.45,-23.93 -58.56,-40.98 -17.82,-17.83 -32.13,-38.82 -42.35,-61.7 l -565.26,35.92 c -33.46,2.07 -66.68,-9.86 -91.13,-32.81 -24.42,-22.93 -38.43,-55.31 -38.43,-88.83 0,-33.51 14.01,-65.9 38.43,-88.83 22.6,-21.23 52.7,-33.04 83.58,-33.04 2.52,0 5.05,0.07 7.58,0.23 l 567.13,36.04 c 20.37,-43.09 55.33,-78.25 99.02,-98.64 0.04,-0.02 0.08,-0.02 0.12,-0.06 27.21,-12.67 56.35,-19.12 86.64,-19.12 h 199.6 c 19.42,0 35.18,15.75 35.18,35.18 0,19.45 -15.76,35.19 -35.18,35.19 h -199.6 c -12.59,0 -24.87,1.7 -36.69,5.04 v 94.91 h 243.71 c 19.43,0 35.18,15.76 35.18,35.19 0,19.44 -15.75,35.18 -35.18,35.18 h -243.71 v 94.9 c 11.84,3.36 24.12,5.06 36.69,5.06" /></g></g></svg>