<?xml version="1.0" standalone="no"?>
<!DOCTYPE svg PUBLIC "-//W3C//DTD SVG 20010904//EN"
 "http://www.w3.org/TR/2001/REC-SVG-20010904/DTD/svg10.dtd">
<svg version="1.0" xmlns="http://www.w3.org/2000/svg"
 width="1400.000000pt" height="685.000000pt" viewBox="0 0 1400.000000 685.000000"
 preserveAspectRatio="xMidYMid meet">
<metadata>
Created by potrace 1.15, written by Peter Selinger 2001-2017
</metadata>
<g transform="translate(0.000000,685.000000) scale(0.100000,-0.100000)"
fill="#000000" stroke="none">
<path d="M6765 6534 c-476 -52 -783 -138 -1185 -332 -139 -67 -381 -222 -508
-324 -253 -204 -482 -444 -626 -656 -16 -23 -33 -42 -37 -42 -5 0 -9 145 -10
323 -1 177 -4 360 -8 407 -5 52 -8 -82 -9 -346 l0 -431 -84 -139 c-46 -77 -96
-167 -112 -202 -39 -83 -61 -85 -56 -4 1 17 -3 32 -8 32 -5 0 -8 -13 -6 -30 2
-16 0 -31 -5 -34 -4 -3 -42 13 -84 35 l-77 40 0 54 c0 30 -4 57 -10 60 -6 4
-10 -13 -10 -44 0 -28 -4 -51 -10 -51 -6 0 -11 46 -12 113 l-2 112 -3 -107
c-5 -147 -23 -139 -24 10 -1 91 -3 108 -10 77 -5 -22 -8 -67 -7 -100 1 -33 -2
-62 -7 -65 -4 -3 -8 184 -8 415 l-1 420 -6 -345 c-3 -190 -6 -343 -8 -340 -1
3 -5 178 -8 390 -4 212 -8 387 -10 389 -2 2 -4 -193 -4 -434 0 -287 -3 -436
-10 -429 -6 6 -11 112 -13 254 l-2 245 -3 -272 c-1 -174 -6 -273 -12 -273 -6
0 -10 110 -11 308 -1 213 -4 290 -10 252 -5 -30 -8 -164 -7 -297 1 -133 -1
-246 -5 -249 -4 -4 -8 100 -9 232 l-1 239 -10 -230 c-9 -216 -11 -231 -28
-232 -18 -2 -19 10 -21 235 l-3 237 -2 -230 c-2 -132 -8 -234 -13 -239 -7 -7
-10 8 -10 42 0 29 -4 52 -9 52 -5 0 -7 -17 -6 -37 2 -20 2 -40 0 -44 -3 -3
-44 0 -92 9 -110 19 -370 21 -478 3 -88 -14 -228 -47 -260 -60 -11 -5 -49 -19
-85 -32 -36 -12 -69 -26 -75 -30 -5 -4 -37 -21 -70 -39 -192 -101 -353 -228
-479 -378 -55 -67 -180 -248 -189 -275 -2 -6 -24 2 -49 17 -31 18 -51 39 -63
66 -24 54 -44 70 -52 42 -7 -30 -29 -31 -103 -5 -241 82 -519 49 -753 -89 -89
-54 -222 -179 -280 -265 -47 -71 -127 -231 -127 -256 0 -8 -7 -20 -15 -27 -9
-7 -14 -18 -12 -24 2 -6 -3 -16 -12 -23 -14 -11 -14 -12 2 -13 22 0 22 -24 0
-46 -13 -13 -14 -19 -5 -22 15 -5 17 -183 2 -198 -8 -8 -6 -15 5 -24 19 -16
20 -40 0 -40 -19 0 -19 -19 0 -26 8 -4 13 -9 10 -14 -2 -4 2 -16 10 -26 8 -10
15 -25 15 -32 0 -18 87 -198 114 -237 29 -42 96 -124 126 -154 57 -58 194
-150 273 -184 121 -52 186 -67 317 -74 129 -6 230 6 330 40 74 26 96 25 103
-5 8 -27 23 -16 51 40 17 32 38 54 65 70 l41 23 41 -66 c23 -35 45 -62 50 -59
5 3 6 -1 4 -8 -3 -8 4 -23 15 -35 11 -12 20 -25 20 -28 0 -24 168 -204 260
-279 41 -33 77 -64 78 -68 2 -5 8 -8 13 -8 4 0 39 -20 76 -44 205 -131 445
-215 669 -234 l89 -7 5 -185 6 -185 2 182 2 181 43 -2 42 -3 0 -231 c0 -128 3
-232 8 -232 4 0 7 105 7 234 l0 234 25 0 24 0 4 -142 3 -141 2 143 c1 86 6
142 12 142 6 0 11 -146 12 -412 l3 -413 5 414 5 414 27 3 c21 2 28 -2 31 -19
4 -22 4 -22 6 1 0 12 6 22 11 22 6 0 10 -73 10 -200 0 -136 3 -200 11 -200 6
0 10 10 9 23 -7 76 1 387 10 387 5 0 11 -39 13 -87 l3 -88 2 88 c1 49 6 87 12
87 6 0 11 -84 13 -217 l2 -218 3 224 c2 187 4 222 16 218 8 -3 17 -3 20 1 4 3
15 6 26 7 20 2 20 -6 21 -309 1 -171 5 -437 9 -591 5 -232 7 -179 7 313 0 326
3 596 7 599 3 4 6 -272 6 -613 0 -382 4 -625 10 -634 6 -10 10 207 10 623 0
391 4 636 9 632 6 -3 10 -163 10 -387 1 -210 3 -384 6 -386 3 -3 5 173 5 392
0 221 4 395 9 392 4 -3 7 -18 5 -33 -4 -26 -3 -26 6 3 9 27 57 64 84 64 3 0 7
-242 9 -537 l2 -538 3 543 c1 353 5 542 12 542 7 0 11 -204 12 -587 l3 -588 5
595 c4 466 8 595 18 596 6 1 14 3 17 4 3 1 10 3 15 4 6 0 14 6 18 12 4 5 27
20 52 33 25 13 59 31 76 42 17 10 34 16 37 12 4 -3 7 -139 7 -301 0 -163 2
-293 5 -290 3 3 6 139 6 301 0 182 3 298 9 302 7 4 10 -140 10 -404 0 -264 4
-411 10 -411 6 0 11 139 12 382 l3 383 29 -60 c51 -104 140 -248 244 -393 l52
-74 1 -237 c1 -130 4 -288 8 -351 5 -93 7 -53 13 204 4 207 10 322 17 329 8 8
11 8 11 -1 0 -6 20 -33 44 -59 84 -91 106 -118 106 -130 0 -7 5 -13 12 -13 6
0 53 -39 102 -87 100 -96 122 -116 241 -213 140 -115 361 -254 540 -340 345
-167 625 -251 1020 -307 100 -14 189 -18 385 -18 242 1 302 6 515 41 300 50
602 148 895 292 63 31 117 59 120 62 3 3 46 29 95 59 50 29 113 71 142 92 29
22 56 39 62 39 5 0 11 3 13 8 2 4 21 20 43 37 52 39 58 44 134 107 35 29 74
61 87 71 l24 19 0 -66 c0 -37 4 -66 10 -66 6 0 10 36 10 87 0 147 19 81 23
-77 l3 -145 2 160 3 160 77 80 c42 45 100 108 127 140 28 33 55 65 61 70 34
32 176 238 244 355 23 41 53 91 64 110 12 19 35 65 51 102 17 37 35 68 40 68
6 0 37 -16 69 -36 32 -19 81 -46 107 -60 l49 -24 2 -553 3 -552 2 548 c2 353
7 547 13 547 6 0 10 -4 10 -10 0 -5 7 -7 15 -4 13 5 15 -14 17 -132 l2 -139 6
135 c3 74 8 128 12 120 4 -8 7 -259 5 -558 -1 -298 1 -542 6 -542 4 0 7 248 7
550 0 360 3 550 10 550 6 0 10 -5 10 -11 0 -5 5 -7 10 -4 7 4 11 -113 12 -342
2 -376 12 -312 19 117 l3 225 6 -265 6 -265 2 259 c2 231 4 257 18 252 9 -3
20 -6 25 -6 5 0 9 -58 9 -132 0 -72 3 -128 7 -124 4 3 6 60 5 126 -1 72 2 120
8 120 5 0 11 -58 13 -137 l3 -138 2 138 c1 75 4 137 6 137 2 0 40 -7 83 -15
43 -8 117 -18 165 -22 l87 -6 4 -31 4 -31 1 33 2 32 63 0 c34 0 86 3 115 6
l52 7 2 -134 2 -134 6 135 c5 130 6 135 28 138 l22 3 2 -253 2 -253 6 255 c3
140 7 251 8 246 1 -5 8 -4 15 2 29 24 32 14 37 -113 l6 -130 2 128 c2 98 5
128 15 124 6 -2 17 2 22 8 6 7 55 27 109 44 127 41 337 147 416 208 237 184
344 307 481 550 27 49 49 83 49 76 0 -7 26 -13 75 -15 41 -2 75 -1 75 2 -1 18
-21 27 -65 27 -95 2 -90 1 -72 21 8 9 16 22 17 27 0 6 28 9 67 7 37 -1 64 1
59 5 -8 9 -13 9 -73 11 -44 2 -58 20 -23 29 25 7 26 23 3 23 -16 1 -16 2 -3
13 8 7 16 28 17 47 1 19 11 70 22 115 10 44 25 113 32 154 l13 74 148 -6 c123
-4 148 -3 148 9 0 16 -42 19 -197 14 -79 -2 -94 0 -99 14 -12 30 -2 32 169 21
64 -5 117 -5 117 -2 0 20 -26 57 -39 57 -14 0 -14 2 -1 10 13 8 13 11 1 19
-11 7 -10 11 6 20 11 6 23 20 26 32 6 22 6 22 -139 17 -137 -5 -144 -4 -144
14 0 18 8 19 88 18 191 -3 212 -1 212 16 0 15 -17 16 -152 13 -147 -4 -152 -3
-153 16 -1 31 -15 110 -41 224 -12 58 -20 109 -17 114 3 4 -3 14 -12 21 -16
12 -16 13 -1 19 22 9 20 27 -3 27 -11 0 -23 5 -26 10 -4 6 7 10 24 10 17 0 31
4 31 9 0 5 -6 9 -12 8 -41 -1 -54 5 -64 31 l-11 29 48 -4 c26 -2 50 1 54 6 3
6 12 8 19 5 8 -3 17 0 21 6 5 8 -16 11 -74 9 l-82 -2 -60 104 c-111 193 -252
356 -405 470 -32 24 -61 46 -64 49 -3 3 -32 22 -65 42 -385 233 -824 297
-1252 182 -50 -13 -98 -21 -107 -18 -9 3 -16 1 -16 -5 0 -6 -12 -16 -27 -22
-16 -6 -54 -24 -86 -40 -32 -16 -60 -29 -62 -29 -3 0 -5 288 -5 640 0 408 -4
640 -10 640 -6 0 -9 -233 -8 -645 0 -355 -1 -647 -3 -649 -26 -19 -122 -65
-128 -62 -5 3 -27 43 -50 88 -23 46 -53 101 -66 123 -13 22 -28 47 -32 55 -51
96 -181 288 -245 360 -7 9 -31 38 -52 65 -99 124 -351 364 -500 476 -80 59
-261 179 -316 210 -25 13 -47 27 -50 30 -5 6 -217 110 -300 147 -76 34 -321
119 -405 141 -308 79 -466 101 -785 105 -135 2 -263 2 -285 0z"/>
<path d="M12243 4278 c-20 -27 -54 -114 -56 -143 -2 -30 -2 -30 50 -30 29 -1
63 5 75 11 l23 13 -25 10 c-20 8 -21 10 -6 10 15 1 17 6 12 33 -3 17 -13 39
-21 48 -8 9 -15 21 -15 27 0 20 -26 35 -37 21z"/>
<path d="M12454 3909 c-5 -8 5 -23 28 -43 27 -24 34 -36 28 -51 -10 -28 -1
-47 20 -40 15 5 19 -2 25 -35 7 -43 13 -48 34 -27 10 10 12 4 9 -28 -3 -38 -2
-40 27 -40 l30 0 2 65 c2 73 11 110 25 110 15 0 47 -43 49 -65 1 -17 2 -17 6
-2 2 9 8 17 12 17 4 0 13 12 20 27 10 22 14 24 21 13 12 -23 17 -200 5 -201
-5 -1 -23 0 -39 1 -17 1 -26 -2 -22 -8 3 -6 -10 -16 -30 -22 -50 -17 -40 -19
35 -9 59 8 66 7 88 -13 14 -13 23 -16 23 -9 0 7 -10 21 -22 31 l-23 18 24 26
c21 22 22 26 7 26 -14 0 -17 8 -14 52 l3 52 53 -3 c31 -1 52 2 52 8 0 6 7 8
15 6 49 -16 50 -16 37 -24 -8 -5 0 -7 20 -7 18 1 40 6 48 11 25 16 48 15 54
-2 5 -12 4 -13 -7 -5 -29 24 -25 -2 4 -29 33 -31 54 -30 44 2 -7 21 22 37 65
35 20 -1 25 -7 28 -40 2 -25 -1 -42 -9 -47 -8 -4 -10 -11 -6 -16 14 -14 42 13
39 38 -2 14 1 19 5 13 4 -6 16 -13 26 -17 9 -3 17 -14 17 -23 0 -10 -6 -14
-14 -11 -9 4 -16 -3 -19 -19 -4 -20 1 -27 22 -35 29 -12 37 -10 33 9 -4 16 1
15 45 -3 26 -11 39 -12 43 -4 4 6 15 9 25 7 26 -5 41 25 29 59 -7 21 -17 29
-39 31 -16 2 -37 10 -48 17 -10 7 -28 10 -39 7 -16 -4 -19 -2 -13 9 8 12 6 12
-8 0 -10 -8 -18 -12 -20 -10 -1 2 -7 12 -12 23 -6 10 -13 17 -16 15 -3 -2 -18
4 -33 14 -15 11 -37 16 -48 14 -12 -3 -18 -1 -15 6 2 6 14 14 28 18 l24 7 -24
1 c-21 1 -23 4 -17 34 3 18 3 37 -1 41 -5 4 -8 13 -8 19 0 5 -6 12 -12 15 -7
2 -13 -1 -13 -7 0 -27 -41 -51 -85 -51 -35 0 -43 -3 -39 -15 5 -11 2 -13 -10
-9 -9 3 -16 1 -16 -5 0 -7 16 -10 40 -8 44 4 66 -5 56 -22 -10 -15 -168 -9
-174 7 -2 7 -8 12 -13 12 -4 0 -6 -7 -3 -15 4 -9 0 -15 -10 -15 -9 0 -16 7
-16 15 0 22 -27 18 -33 -5 -7 -28 -29 -25 -25 3 2 18 11 23 48 28 25 4 50 3
55 -1 16 -13 60 0 74 22 14 23 7 36 -11 20 -9 -7 -42 -7 -102 -1 -94 10 -110
7 -102 -19 6 -17 -11 -19 -116 -13 -10 1 -18 8 -18 16 0 8 -7 15 -15 15 -8 0
-15 -7 -15 -15 0 -11 -11 -15 -36 -15 -21 0 -33 4 -29 10 3 6 -4 14 -17 19
-18 8 -19 10 -5 10 10 1 25 -6 33 -14 9 -8 20 -15 25 -15 5 0 9 7 9 15 0 10
11 15 35 15 66 0 35 17 -42 24 -43 3 -92 9 -109 12 -20 4 -34 1 -40 -7z"/>
<path d="M12387 3818 c3 -46 5 -114 6 -153 1 -38 6 -76 10 -82 5 -7 27 -13 50
-12 35 0 38 2 20 9 -15 6 -21 15 -17 25 4 10 0 15 -11 15 -16 0 -17 8 -12 82
4 58 10 85 21 94 18 13 22 44 5 44 -6 0 -9 7 -5 15 6 16 -29 45 -55 45 -13 0
-15 -12 -12 -82z"/>
<path d="M13182 3550 c-7 -11 -23 -20 -36 -20 -13 0 -29 -7 -36 -15 -7 -8 -28
-15 -47 -15 -40 0 -124 -19 -137 -31 -6 -5 -23 -9 -39 -9 -16 0 -64 -9 -107
-20 -63 -16 -84 -18 -104 -9 -20 9 -32 8 -60 -5 -20 -9 -36 -20 -36 -25 0 -4
15 -15 34 -24 27 -12 40 -14 63 -5 22 8 47 6 115 -11 119 -29 125 -28 119 17
-1 6 5 12 14 12 17 0 20 -31 4 -47 -7 -7 3 -13 33 -21 83 -21 120 -24 129 -10
7 10 11 7 15 -9 6 -21 20 -28 52 -24 6 1 17 -10 24 -24 12 -26 31 -36 22 -10
-4 10 0 15 15 15 25 0 28 22 5 41 -13 10 -17 10 -24 -1 -5 -8 -13 -11 -17 -6
-4 5 -2 11 5 13 6 3 10 8 8 11 -2 4 20 7 50 8 30 0 54 -3 54 -8 0 -5 5 -6 10
-3 22 14 8 25 -32 25 -23 0 -39 2 -36 5 7 8 101 15 119 9 21 -6 30 -39 16 -53
-8 -8 -6 -11 6 -11 9 0 22 -10 28 -22 l12 -22 17 22 c10 11 20 19 23 16 2 -3
16 -2 31 2 23 5 24 9 14 28 -7 13 -13 16 -16 8 -2 -6 -19 -12 -38 -12 -21 0
-33 4 -29 10 3 6 15 10 25 10 10 0 22 5 26 11 5 9 -7 10 -42 5 -47 -6 -48 -6
-19 7 17 8 36 12 43 9 6 -2 12 1 12 8 0 8 -12 11 -35 8 -19 -2 -35 0 -35 4 0
4 -5 8 -11 8 -5 0 -8 -4 -5 -9 4 -5 -3 -7 -14 -4 -21 5 -21 6 -1 19 11 8 25
12 33 11 7 -2 10 -2 6 0 -19 11 -5 22 21 17 16 -4 32 -1 35 5 5 7 -2 11 -16
11 -14 0 -33 7 -44 16 -18 14 -18 15 6 8 36 -11 59 -10 62 1 2 5 -10 12 -27
15 l-30 6 27 5 c14 3 34 2 43 -4 12 -7 20 -5 26 4 6 10 -1 17 -27 24 -19 6
-40 17 -45 25 -8 13 -11 13 -23 -2 -7 -10 -21 -18 -30 -18 -18 0 -21 -11 -6
-26 12 -12 -8 -42 -30 -44 -42 -6 -110 1 -110 11 0 7 14 8 40 4 24 -4 40 -3
40 3 0 5 -21 10 -47 10 -53 1 -71 13 -48 32 21 17 19 42 -2 38 -10 -2 -17 3
-15 10 3 19 -12 14 -26 -8z"/>
<path d="M12820 3241 c-9 -13 -22 -19 -34 -16 -12 3 -43 7 -71 9 -27 2 -54 5
-60 6 -5 1 -18 2 -28 1 -14 -1 -16 -5 -8 -19 7 -13 6 -23 -1 -30 -7 -7 -8 -12
-3 -12 5 0 0 -6 -11 -14 -14 -11 -16 -18 -8 -26 18 -18 5 -52 -16 -45 -15 5
-19 -2 -25 -35 -5 -32 -11 -40 -23 -35 -21 8 -32 -13 -21 -42 5 -12 5 -23 1
-23 -10 0 -62 -49 -62 -59 0 -17 46 -20 95 -6 27 8 67 13 88 11 21 -2 40 1 43
5 3 5 -2 9 -10 9 -10 0 -13 6 -9 18 10 27 24 32 84 32 48 0 57 -3 55 -17 -1
-16 10 -18 111 -18 62 0 113 3 113 8 0 4 -4 7 -10 7 -5 0 -10 5 -10 10 0 6 9
10 20 10 11 0 20 5 20 11 0 6 -7 8 -16 5 -40 -15 -67 -19 -60 -7 4 6 3 11 -3
11 -5 0 -13 -4 -16 -10 -11 -17 -102 -12 -109 6 -10 25 -7 34 9 34 8 0 15 -9
15 -20 0 -12 7 -20 16 -20 10 0 14 6 10 15 -5 14 3 19 21 13 5 -2 7 -10 5 -18
-2 -12 0 -11 11 2 11 14 31 18 96 19 45 1 85 -1 88 -5 3 -3 0 -13 -7 -21 -9
-10 -16 -12 -20 -5 -4 6 -13 5 -26 -4 -24 -18 -16 -26 35 -33 31 -4 47 -13 62
-34 11 -16 25 -27 30 -23 5 3 7 10 4 15 -3 5 3 19 14 31 12 12 21 27 20 32 0
6 -3 5 -6 -2 -6 -15 -23 -6 -23 14 0 8 9 14 20 14 11 0 20 5 20 11 0 6 -9 9
-20 6 -11 -3 -23 -1 -26 4 -3 6 -15 7 -27 4 -17 -5 -19 -4 -7 4 8 6 32 11 52
11 20 0 40 5 43 10 3 6 15 10 25 10 10 0 22 9 25 20 5 15 15 20 45 20 22 0 45
7 55 16 9 10 26 14 40 12 19 -4 26 1 35 23 16 37 9 64 -15 64 -11 1 -25 4 -32
8 -6 4 -23 3 -38 -3 -37 -14 -58 -13 -52 3 4 10 -2 13 -19 9 -30 -6 -46 -25
-38 -46 5 -14 14 -16 44 -11 22 4 41 2 44 -4 10 -15 -15 -25 -25 -10 -8 12
-11 11 -22 -2 -20 -26 -44 -30 -50 -8 -3 12 -14 19 -29 19 -16 0 -19 -3 -10
-9 9 -5 13 -23 11 -47 -3 -50 -8 -58 -24 -44 -8 7 -15 7 -19 1 -6 -10 -45 -3
-47 8 -6 52 -15 61 -35 33 -8 -12 -22 -22 -30 -22 -8 0 -14 -5 -14 -11 0 -6 9
-9 20 -6 11 3 18 2 15 -3 -9 -15 -46 -19 -52 -4 -3 9 -17 13 -38 11 -18 -1
-31 -5 -29 -8 8 -13 -22 -17 -94 -11 l-72 5 0 49 c0 33 5 50 15 54 12 5 11 9
-5 27 -11 11 -20 24 -20 28 0 12 29 18 33 6 2 -7 5 -8 10 0 3 5 1 18 -6 27
-11 15 -13 15 -27 -3z m-102 -21 c13 0 22 -6 22 -16 0 -13 7 -15 33 -10 l32 6
-3 -93 c-2 -50 -5 -98 -7 -104 -6 -18 -25 -16 -25 2 0 9 -7 18 -15 21 -8 4
-15 14 -16 23 0 13 -2 13 -6 1 -12 -32 -44 -69 -57 -64 -11 4 -17 42 -20 137
-1 15 -7 32 -15 36 -11 7 -10 11 5 20 13 8 15 14 7 17 -21 9 -2 36 21 30 11
-3 31 -6 44 -6z"/>
<path d="M12438 3233 c-40 -4 -48 -17 -43 -68 1 -16 3 -44 4 -62 0 -17 7 -33
14 -36 6 -2 4 -3 -5 -2 -10 2 -20 -4 -22 -14 -9 -28 1 -145 13 -149 19 -6 61
27 55 43 -4 8 -1 15 5 15 6 0 11 5 11 11 0 6 -9 8 -22 4 -22 -6 -22 -5 1 8 22
13 22 15 7 24 -26 14 -35 167 -10 177 13 5 14 9 4 21 -10 12 -9 15 9 15 11 0
21 5 21 10 0 6 -1 9 -2 8 -2 -1 -20 -3 -40 -5z"/>
<path d="M12185 2690 c-3 -5 -2 -22 1 -37 10 -37 53 -131 64 -138 9 -6 49 54
67 102 11 29 10 32 -10 36 -22 4 -22 4 1 6 29 1 28 15 -3 29 -31 14 -111 16
-120 2z"/>
</g>
</svg>
